<svg enable-background="new 0 0 64 64" viewBox="0 0 64 64" xmlns="http://www.w3.org/2000/svg"><circle cx="32" cy="32" fill="#77b3d4" r="32"/><path d="m49.5 33.9-14.2-18.2c-1.8-2.3-4.7-2.3-6.5 0l-14.3 18.2c-1.8 2.3-1 4.1 1.7 4.1h7.8v12c0 2.2 1.8 4 4 4h8c2.2 0 4-1.8 4-4v-12h7.8c2.8 0 3.5-1.9 1.7-4.1z" fill="#231f20" opacity=".2"/><g fill="#fff"><path d="m40 48c0 2.2-1.8 4-4 4h-8c-2.2 0-4-1.8-4-4v-24c0-2.2 1.8-4 4-4h8c2.2 0 4 1.8 4 4z"/><path d="m16.2 36c-2.7 0-3.5-1.9-1.7-4.1l14.3-18.1c1.8-2.3 4.7-2.3 6.5 0l14.3 18.1c1.8 2.3 1 4.1-1.7 4.1z"/></g></svg>