<svg width="44" height="52" viewBox="0 0 44 52" fill="none" xmlns="http://www.w3.org/2000/svg">
<g clip-path="url(#clip0_3_373)">
<path d="M21.819 28H22.17C23.5726 28.0269 24.9642 27.747 26.2473 27.1797C27.5304 26.6125 28.674 25.7716 29.598 24.716C33.663 20.047 32.979 12.041 32.924 11.275C32.624 5.54099 29.975 2.79699 27.784 1.50999C26.056 0.52578 24.1026 0.00557808 22.114 -1.22914e-05H21.937C19.9481 -0.00579282 17.9915 0.502654 16.257 1.47599C14.04 2.75599 11.35 5.49999 11.084 11.29C11.01 12.045 10.345 20.058 14.41 24.731C15.3342 25.7803 16.4756 26.6161 17.7549 27.1806C19.0342 27.745 20.4209 28.0246 21.819 28ZM13.907 11.546V11.46C14.265 3.74499 19.627 2.91799 21.926 2.91799H22.052C24.897 2.98199 29.731 4.16699 30.06 11.464C30.0541 11.4927 30.0541 11.5223 30.06 11.551C30.06 11.626 30.799 18.945 27.473 22.796C26.7926 23.5536 25.954 24.1524 25.0165 24.5499C24.079 24.9473 23.0656 25.1338 22.048 25.096H21.941C20.9241 25.1415 19.9099 24.9585 18.9729 24.5605C18.036 24.1625 17.2002 23.5595 16.527 22.796C13.179 18.96 13.896 11.611 13.907 11.546Z" fill="black"/>
<path d="M44 41.372V41.072C43.936 38.951 43.8 33.988 39.149 32.402L39.04 32.368C35.877 31.498 32.8727 30.1299 30.14 28.315C29.9847 28.2009 29.8081 28.1189 29.6207 28.074C29.4333 28.029 29.2388 28.0219 29.0486 28.0531C28.8584 28.0844 28.6764 28.1533 28.5132 28.2558C28.35 28.3584 28.209 28.4925 28.0983 28.6503C27.9877 28.8081 27.9097 28.9864 27.8689 29.1748C27.8281 29.3632 27.8253 29.5578 27.8608 29.7472C27.8963 29.9367 27.9692 30.1171 28.0754 30.278C28.1815 30.4389 28.3188 30.5769 28.479 30.684C31.4727 32.6922 34.7722 34.2018 38.249 35.154C40.744 36.045 41.022 38.711 41.097 41.17C41.0915 41.2589 41.0915 41.3481 41.097 41.437C41.1164 42.5454 41.0411 43.6534 40.872 44.749C39.162 45.723 32.357 49.133 22.009 49.133C11.661 49.133 4.85399 45.71 3.11099 44.725C2.93654 43.63 2.86123 42.5215 2.88599 41.413V41.146C2.96099 38.702 3.23899 36.033 5.73399 35.13C9.20895 34.1726 12.5076 32.6634 15.504 30.66C15.6642 30.5529 15.8014 30.4149 15.9076 30.254C16.0138 30.0931 16.0867 29.9127 16.1222 29.7232C16.1576 29.5338 16.1549 29.3392 16.1141 29.1508C16.0733 28.9624 15.9953 28.7841 15.8847 28.6263C15.774 28.4685 15.633 28.3344 15.4698 28.2318C15.3066 28.1293 15.1246 28.0604 14.9344 28.0291C14.7442 27.9979 14.5497 28.005 14.3623 28.0499C14.1748 28.0949 13.9983 28.1769 13.843 28.291C11.1236 30.1117 8.12951 31.4839 4.97499 32.355L4.86599 32.389C0.217988 33.987 0.0789882 38.946 -1.18231e-05 41.059C0.00550437 41.1479 0.00550437 41.2371 -1.18231e-05 41.326V41.36C-0.0555825 42.9959 0.128021 44.6312 0.544988 46.214C0.655433 46.4893 0.851856 46.7215 1.10499 46.876C1.42799 47.09 9.12699 52.001 22.016 52.001C34.905 52.001 42.6 47.079 42.926 46.876C43.1767 46.7148 43.371 46.4796 43.482 46.203C43.8848 44.6257 44.0593 42.9988 44 41.372Z" fill="black"/>
</g>
<defs>
<clipPath id="clip0_3_373">
<rect width="44" height="52" fill="white"/>
</clipPath>
</defs>
</svg>
